<?xml version="1.0" encoding="UTF-8"?>
<svg id="Art" xmlns="http://www.w3.org/2000/svg" viewBox="0 0 32 32">
  <defs>
    <style>
      .cls-1 {
        fill: #0f3d54;
      }
    </style>
  </defs>
  <path class="cls-1" d="M21.33,16.37h.17v-.73h-.17c-2.74-.07-4.97-2.36-4.97-5.1v-.17h-.73v.17c0,2.78-2.18,5.02-4.96,5.1h-.17v.72h.17c2.78.08,4.96,2.31,4.96,5.09v.17h.73v-.17c0-2.74,2.23-5.02,4.97-5.09ZM15.83,15.83h-3.97c1.97-.49,3.5-2.03,3.97-3.99v3.99ZM16.18,20.17v-4h4.01c-1.97.47-3.53,2.04-4.01,4Z"/>
  <path class="cls-1" d="M16,1.54C8.03,1.54,1.54,8.03,1.54,16s6.49,14.46,14.46,14.46,14.46-6.49,14.46-14.46S23.97,1.54,16,1.54ZM16.25,24.87c-.02.08-.04.15-.06.23-.05.2-.1.4-.15.6-.01.05-.02.09-.03.14,0-.04-.02-.09-.03-.13-.04-.21-.09-.41-.15-.61-.02-.07-.04-.15-.06-.22-.08-.26-.16-.51-.25-.77-1.29-3.56-4.06-6.33-7.62-7.62h-.04s-.01-.02-.02-.02c-.23-.09-.47-.16-.71-.23-.08-.02-.15-.04-.23-.06-.18-.05-.37-.1-.55-.14-.05-.01-.1-.03-.15-.04.05,0,.09-.02.13-.03.19-.04.38-.09.56-.14.07-.02.15-.04.22-.06.25-.07.49-.15.73-.24l.05-.02c3.56-1.29,6.34-4.06,7.62-7.62l.02-.05c.09-.25.17-.5.24-.75.02-.07.04-.14.06-.22.05-.19.1-.39.14-.58.01-.05.02-.09.03-.14,0,.04.02.08.03.13.05.21.1.42.15.62.02.07.04.14.06.21.08.26.16.52.25.77,1.29,3.56,4.06,6.34,7.62,7.62.25.09.5.17.75.24.07.02.15.04.22.06.19.05.39.1.59.14.05,0,.09.02.13.03-.05.01-.1.03-.15.04-.19.04-.38.09-.56.14-.08.02-.16.04-.23.06-.25.07-.5.15-.75.24-3.56,1.29-6.33,4.07-7.62,7.62-.09.25-.17.51-.25.76ZM16.37,28.64c.09.25.2.49.32.73.03.07.07.13.1.2.05.09.09.19.14.28-.31.02-.62.03-.93.03s-.62-.01-.93-.03c.06-.11.12-.22.17-.34.02-.04.04-.07.06-.11.13-.26.24-.52.34-.79.01-.03.02-.06.03-.09.09-.24.17-.49.23-.73.02-.05.03-.11.04-.16.01-.05.03-.1.04-.16,0,.04.02.08.03.12.02.09.05.17.07.25.06.2.12.39.19.58.03.07.05.15.08.22ZM14.64,23.4v2.91c-.25-.03-.5-.06-.75-.11v-4.19c.28.45.53.92.75,1.4ZM12.8,20.5v5.39c-.25-.08-.5-.17-.75-.27v-5.92c.26.25.51.52.75.79ZM10.96,18.77v6.33c-.25-.14-.5-.29-.75-.45v-6.41c.26.17.5.34.75.53ZM9.12,17.6v6.18c-.08-.07-.17-.15-.25-.23-.13-.12-.25-.24-.37-.37-.04-.04-.08-.09-.12-.14v-5.8c.25.11.5.23.75.35ZM7.28,16.85v4.81c-.14-.22-.28-.44-.4-.66-.05-.09-.09-.18-.13-.27-.07-.14-.14-.29-.21-.43v-3.67s.06.01.09.02c.05.01.09.03.14.04.18.05.35.11.52.17ZM2.11,16c0-.31.01-.62.03-.92.1.05.19.1.29.15.06.03.12.06.18.09.24.12.49.22.74.32.06.02.13.04.19.07.21.07.42.14.63.2.07.02.14.04.2.06.04,0,.07.02.11.03-.04,0-.07.02-.11.03-.07.02-.14.04-.21.06-.21.06-.42.13-.62.2-.07.02-.13.04-.19.07-.25.1-.49.2-.74.32-.06.03-.12.06-.19.1-.1.05-.19.1-.29.15-.02-.31-.03-.61-.03-.92ZM4.38,15.42c-.22-.06-.43-.13-.65-.21-.05-.02-.1-.03-.14-.05-.26-.1-.52-.21-.77-.34-.05-.02-.09-.05-.14-.08-.16-.08-.32-.17-.48-.27.4-3.69,2.25-6.95,4.96-9.2,0,0,0,0,.01-.01,2.03-1.67,4.55-2.78,7.31-3.08.07.12.14.24.2.36.05.1.11.19.16.29.12.24.22.49.32.74.04.11.07.22.11.33.05.15.1.3.15.46.04.13.07.27.1.41.02.1.04.19.06.29-5.71.22-10.28,4.8-10.51,10.51-.13-.02-.25-.05-.38-.08-.1-.02-.2-.04-.3-.07ZM16,2.11c.31,0,.62.01.93.03-.06.1-.11.21-.16.31-.03.05-.06.1-.08.16-.12.25-.23.5-.33.75-.02.06-.04.12-.06.18-.07.21-.14.42-.2.63-.02.07-.04.15-.06.22,0,.04-.02.07-.03.11-.01-.05-.03-.09-.04-.14-.01-.05-.03-.11-.04-.16-.07-.24-.14-.47-.22-.7-.02-.04-.03-.09-.05-.13-.1-.27-.21-.53-.34-.78-.02-.04-.04-.07-.06-.11-.06-.12-.12-.23-.18-.34.31-.02.61-.03.93-.03ZM21.31,13.45c-.25-.18-.48-.37-.71-.56l3.89-2.88s.07.09.1.13c.03.04.06.09.09.14.1.15.19.31.28.47l-3.65,2.7ZM25.57,11.91c.12.27.22.55.31.83l-3.14,1.58c-.31-.16-.61-.34-.9-.52l3.73-1.89ZM20.22,12.55c-.21-.2-.42-.4-.62-.61l3.43-3.59c.07.06.14.13.21.19.07.07.15.15.22.22.06.07.12.14.19.2l-3.43,3.58ZM19.25,11.56c-.2-.23-.39-.47-.57-.72l2.58-3.81c.16.09.31.18.46.28.05.03.09.06.14.09.05.03.09.07.13.1l-2.74,4.05ZM18.3,10.31c-.19-.29-.38-.6-.55-.91l1.49-3.28c.28.09.55.19.82.3l-1.76,3.89ZM17.28,8.44c-.1-.24-.2-.48-.29-.72-.09-.25-.16-.5-.24-.76l.34-1.3c.29.03.58.08.87.13l-.69,2.65ZM25.04,15.25c-.25-.07-.5-.14-.75-.23-.22-.08-.44-.17-.65-.26l2.56-.78c.06.29.1.58.13.87l-1.3.4ZM16.44,5.06c.02-.13.05-.26.08-.39.02-.09.04-.19.07-.28.06-.22.13-.43.2-.64.02-.05.03-.11.05-.16.1-.26.21-.52.33-.77.03-.06.06-.11.09-.17.08-.15.17-.31.26-.46,6.45.71,11.58,5.83,12.28,12.29-.15.09-.3.17-.46.25-.06.03-.11.06-.17.09-.25.12-.5.23-.75.33-.1.04-.21.07-.31.1-.15.05-.31.11-.47.15-.15.04-.29.07-.44.11-.09.02-.18.04-.26.06-.22-5.71-4.79-10.29-10.5-10.51ZM27.62,15.97c.06-.02.12-.03.18-.05.22-.06.45-.13.66-.21.05-.02.11-.04.16-.06.26-.1.51-.21.76-.33.05-.02.1-.05.15-.08.1-.05.21-.11.31-.16.02.3.03.61.03.92s-.01.62-.03.92c-.11-.06-.22-.11-.33-.17-.04-.02-.09-.05-.13-.07-.25-.12-.51-.23-.77-.33-.05-.02-.1-.04-.15-.05-.22-.08-.45-.15-.68-.22-.06-.02-.11-.03-.17-.05-.04-.01-.08-.02-.12-.03.04,0,.08-.02.12-.03ZM2.2,17.52c.15-.09.31-.18.47-.26.05-.03.1-.06.16-.09.25-.12.51-.24.77-.33.05-.02.1-.03.15-.05.21-.07.42-.14.63-.2.1-.03.21-.05.31-.07.12-.03.25-.06.37-.08.22,5.71,4.8,10.28,10.5,10.51-.02.12-.05.23-.07.35-.03.11-.05.23-.08.34-.05.18-.11.35-.17.52-.03.09-.06.18-.09.27-.1.25-.2.5-.32.74-.05.1-.1.19-.15.28-.06.12-.13.24-.2.36-3.21-.35-6.09-1.79-8.26-3.94-.03-.03-.05-.05-.08-.08-2.15-2.17-3.6-5.05-3.94-8.26ZM25.8,25.84c-2.17,2.16-5.06,3.61-8.27,3.96-.1-.17-.2-.34-.28-.51-.02-.04-.04-.07-.06-.11-.12-.25-.23-.51-.33-.77-.03-.07-.05-.15-.07-.22-.07-.19-.13-.37-.18-.56-.03-.11-.06-.23-.08-.35-.03-.11-.05-.23-.07-.34,5.7-.23,10.28-4.8,10.5-10.51.13.02.25.05.37.08.1.02.21.04.31.07.2.05.39.12.58.19.07.02.14.04.21.07.26.1.51.21.75.33.08.04.15.08.23.12.14.07.27.15.4.23-.35,3.22-1.8,6.11-3.96,8.28-.01.01-.03.03-.04.04Z"/>
</svg>