<?xml version="1.0" encoding="UTF-8"?><svg id="Layer_2" xmlns="http://www.w3.org/2000/svg" viewBox="0 0 457.8403 108.9889"><g id="Components"><g id="_4b1997ef-d607-45a1-9668-21360ff3ced6_10"><path d="M55.8683,33.2768h-2.7483v.6508c0,10.4788-8.2148,18.9143-18.702,19.2065l-.6336.0177v2.7136l.6341.0177c10.4867.2686,18.7015,8.6864,18.7015,19.1652v.6511h2.7483v-.6511c0-10.3356,8.3974-18.9338,18.7195-19.1652l.6363-.0159v-2.7176l-.6357-.0156c-10.3226-.2512-18.72-8.8688-18.72-19.2065v-.6508ZM53.8537,53.8359h-14.9601c7.4335-1.8312,13.1895-7.6394,14.9601-15.0551v15.0551ZM70.2864,55.1378c-7.4171,1.7884-13.3065,7.677-15.1306,15.067v-15.067h15.1306Z" style="fill:#0d3e54;"/><path d="M54.4942,0C24.4458,0,0,24.4456,0,54.4934s24.4458,54.4955,54.4942,54.4955,54.4952-24.4458,54.4952-54.4955S84.5436,0,54.4942,0ZM54.4947,2.1634c1.1815,0,2.3492.0532,3.5111.1302-.2133.3867-.4097.7813-.6109,1.1741-.1022.1996-.2117.3949-.3097.596-.4531.9285-.8639,1.8749-1.2328,2.8388-.0858.2255-.1599.4552-.2408.6828-.2805.7818-.5336,1.5745-.758,2.3778-.0773.2758-.1599.5497-.2303.8276-.0365.1421-.0836.2803-.1175.4235-.0413-.1723-.0985-.3401-.1424-.5116-.0519-.2022-.1117-.4007-.1678-.6011-.2456-.8938-.5262-1.7751-.8427-2.6438-.0603-.1657-.1138-.3335-.1768-.4981-.3801-.9999-.8057-1.9824-1.2783-2.946-.0693-.1427-.1482-.2819-.2197-.4237-.2207-.4346-.4383-.87-.6754-1.2977,1.1561-.0762,2.3174-.1289,3.492-.1289ZM79.8669,48.1707c-1.1619-.6151-2.2979-1.2683-3.3957-1.9765l14.0756-7.1053c.4351,1.0142.8109,2.0581,1.1598,3.1141l-11.8397,5.9677ZM92.9515,46.8712c.2149,1.082.3817,2.1806.5039,3.2925l-4.8969,1.5076c-.9433-.2745-1.8892-.5426-2.8113-.8792-.8274-.2991-1.642-.6228-2.4455-.9666l9.6498-2.9542ZM74.5248,44.8713c-.9274-.6675-1.8188-1.3795-2.6911-2.1126l14.6647-10.8477c.1207.171.2578.3295.3758.5023.1165.1686.2223.3446.3372.5145.3774.5701.7194,1.1645,1.0666,1.7548l-13.7532,10.1887ZM70.3827,41.4926c-.8099-.7421-1.5885-1.5171-2.3423-2.3158l12.9354-13.5193c.2636.2419.5383.4732.7951.7231.2827.2734.5611.5508.8342.8326.2424.2496.4658.5161.7014.7718l-12.9238,13.5076ZM66.7547,37.7624c-.7548-.8694-1.4763-1.7685-2.1645-2.6954l9.7128-14.3577c.5865.3451,1.1757.685,1.7426,1.0592.1752.118.3568.2271.5315.3478.1742.1191.334.2567.5055.3785l-10.3279,15.2677ZM63.1785,33.056c-.7347-1.1079-1.4244-2.2486-2.0639-3.4238l5.6041-12.3748c1.0502.3462,2.0904.7159,3.0998,1.146l-6.64,14.6526ZM59.3302,25.9851c-.388-.893-.758-1.7966-1.091-2.7197-.3404-.9412-.6119-1.8998-.8888-2.8574l1.2937-4.9025c1.1058.1172,2.193.2935,3.2692.5005l-2.5832,9.9791ZM85.0612,52.6801c.9306.3393,1.8765.6384,2.8288.9171.28.0823.5627.1569.8438.2334.7315.1993,1.4668.3798,2.2063.5431.1694.0373.334.0887.5039.1241-.1916.0397-.3779.0974-.568.1397-.7109.1577-1.4154.3308-2.1168.5214-.2938.0799-.5881.1572-.8792.2427-.9491.2779-1.8903.5762-2.8145.9139-13.4028,4.853-23.8678,15.3259-28.7128,28.73-.3462.9494-.65,1.9133-.9332,2.883-.0826.2832-.1577.5669-.2356.8512-.2017.7469-.3848,1.4972-.55,2.2523-.0381.1794-.0932.3552-.1302.5352-.0344-.1683-.0852-.3324-.1217-.5005-.1683-.7742-.3557-1.5428-.5627-2.3071-.0746-.2747-.1477-.55-.2271-.8234-.2837-.9721-.5876-1.9371-.9338-2.8867-4.845-13.4023-15.3121-23.8694-28.7144-28.7144l-.153-.0492c-.0206-.0079-.0418-.0132-.063-.0206-.884-.324-1.7839-.6111-2.6922-.8787-.2832-.0839-.5685-.1593-.8538-.2374-.6871-.1876-1.3784-.3592-2.0766-.5148-.1853-.041-.3652-.0974-.5516-.1366.1704-.036.3361-.0879.506-.1249.7104-.158,1.4154-.3324,2.1163-.5238.2795-.0765.559-.1506.8374-.2318.9253-.2729,1.8453-.5651,2.7483-.8959l.1821-.059c13.4261-4.8548,23.8927-15.3198,28.7144-28.7163l.0588-.1826c.3324-.9274.6257-1.8691.9004-2.8161.0794-.2715.1509-.5447.2255-.8178.1969-.7273.3753-1.4583.5378-2.1941.0386-.1726.0905-.342.1265-.515.0333.1599.0826.3171.117.4769.1694.7847.3599,1.5658.5706,2.3431.0715.2644.1419.528.2176.7911.2843.9795.5902,1.954.9385,2.9164,4.8508,13.4179,15.3158,23.8908,28.7102,28.7321ZM49.3839,82.3712v10.9647c-.9433-.1239-1.8892-.2435-2.8108-.433v-15.8094c1.047,1.6854,1.9824,3.4494,2.8108,5.2778ZM42.4369,71.4594v20.3324c-.9533-.3091-1.8913-.6524-2.8108-1.0309v-22.2957c.9819.9549,1.9183,1.954,2.8108,2.9942ZM35.51,64.9187v23.8612c-.9607-.5336-1.9019-1.0989-2.8108-1.7092v-24.1462c.9645.6281,1.8993,1.2982,2.8108,1.9943ZM28.563,60.5371v23.2929c-.3176-.2811-.6336-.5643-.9412-.8554-.4748-.4547-.9512-.9073-1.4043-1.384-.1599-.1667-.3097-.3433-.4663-.5127v-21.8706c.9565.4097,1.8908.8596,2.8118,1.3297ZM21.6351,57.7141v18.1102c-.5304-.8146-1.046-1.6394-1.5165-2.4942-.1805-.3292-.3351-.6738-.5066-1.0089-.2758-.5373-.5367-1.082-.7877-1.6327v-13.8141c.1069.0267.217.0416.3234.0691.1747.0455.3472.0979.5209.1461.6654.1824,1.3138.4108,1.9665.6246ZM21.1851,14.1325c.0154-.0127.0307-.0251.0455-.0378,7.6563-6.3108,17.1394-10.4803,27.5345-11.6129.2631.4444.5119.8964.7554,1.3501.1927.361.4065.7135.586,1.0804.4441.9083.8464,1.8339,1.2048,2.7764.154.4036.2705.8202.4081,1.2296.1932.5738.3912,1.146.5526,1.732.1403.506.2483,1.0237.3642,1.5383.081.3592.1599.7188.2303,1.0814-21.5107.8411-38.7596,18.0927-39.596,39.6039-.4828-.0918-.9613-.1921-1.4366-.3046-.3742-.0876-.7538-.1628-1.1233-.2633-.8268-.225-1.6367-.4902-2.4387-.7763-.1784-.0638-.3626-.112-.5394-.1781-.9909-.3734-1.9628-.7956-2.9124-1.263-.1784-.0873-.3483-.1932-.5246-.284-.6151-.3168-1.2191-.6588-1.8162-1.0155,1.5097-13.9168,8.4678-26.1977,18.7057-34.6565ZM2.1639,54.4942c0-1.1661.0519-2.3196.127-3.4669.3605.1982.7284.3803,1.0936.5685.2287.1172.4521.2427.6828.3544.9094.4431,1.8379.8443,2.7822,1.2058.234.0897.4732.1673.7098.252.7834.2811,1.5774.5338,2.3825.7591.2567.072.5124.1487.7712.2154.1392.0355.2737.0815.4129.1154-.136.0333-.2684.0783-.4049.1133-.2657.0675-.5272.1469-.7919.221-.7945.2226-1.578.4719-2.3513.7493-.2451.0873-.4923.1678-.7342.261-.9406.3605-1.8649.7604-2.7711,1.2016-.235.1143-.4648.2419-.6977.3621-.3621.1863-.7263.3671-1.0836.5632-.0757-1.1497-.1276-2.3058-.1276-3.4751ZM49.5242,105.1549c-.243.4544-.4918.9073-.7554,1.3525-12.0879-1.3162-22.9383-6.7438-31.1224-14.8617-.1016-.1006-.2027-.2014-.3033-.3028-8.12-8.187-13.5489-19.0424-14.8627-31.1351.5764-.3446,1.1598-.6741,1.7542-.9814.2011-.104.3949-.2247.5982-.324.947-.4663,1.913-.8874,2.8949-1.259.1847-.0696.3758-.1188.5622-.185.7882-.2821,1.5832-.545,2.39-.766.3912-.1069.7892-.1842,1.1836-.2771.4669-.1093.9353-.2107,1.407-.2999.8364,21.5043,18.0753,38.7514,39.5759,39.6023-.0842.4425-.1773.8819-.2779,1.318-.099.4261-.1853.8559-.3001,1.2762-.1826.6686-.4039,1.322-.6273,1.975-.1149.3377-.2091.6839-.3356,1.0174-.3599.9499-.7638,1.8823-1.2101,2.7954-.1752.3589-.3832.7024-.5712,1.055ZM54.4947,106.8255c-1.1735,0-2.3338-.0527-3.4883-.1289.2313-.4179.4431-.8446.659-1.2696.0725-.1416.1498-.2808.2197-.424.4801-.979.9126-1.975,1.2958-2.9878.0402-.1064.0736-.2152.1127-.3216.3345-.9105.6257-1.8326.8819-2.7637.0566-.2054.1154-.4102.1683-.6172.0498-.1961.1138-.3893.1599-.5865.0349.1477.0831.2909.1207.4378.0815.3218.1736.6384.2636.9565.2086.7411.442,1.4726.6982,2.1952.0979.2768.1869.5574.2922.8319.3557.9308.7517,1.8447,1.1873,2.7417.1233.2551.2615.5029.3912.7548.181.3512.3552.7048.5447,1.0513-1.1603.0768-2.327.1302-3.5069.1302ZM91.5673,91.4255c-.0476.0482-.0958.0958-.1435.1435-8.1888,8.1571-19.0657,13.6124-31.1853,14.936-.3748-.6286-.7379-1.2643-1.0693-1.9143-.0693-.136-.1519-.2665-.2186-.4044-.4653-.9454-.884-1.9136-1.2577-2.9013-.1032-.2731-.1816-.559-.2763-.8353-.2451-.7022-.4806-1.4075-.6797-2.1287-.1186-.4304-.2117-.8755-.315-1.3141-.0995-.4266-.1916-.8565-.2758-1.2889,21.4969-.852,38.7332-18.0948,39.5732-39.5944.4727.0897.9433.1884,1.4096.2985.3885.091.7813.1689,1.1656.2737.7442.2038,1.4726.4473,2.1983.7008.262.091.5304.1625.7892.2607.9655.365,1.913.7763,2.8404,1.231.2922.1429.5717.3144.8607.4666.5145.2715,1.0237.554,1.5261.853-1.318,12.1329-6.7771,23.0214-14.9421,31.2176ZM106.8255,54.4942c0,1.169-.0519,2.3254-.127,3.4751-.4055-.2234-.8173-.4293-1.2286-.6381-.1678-.0852-.3314-.1781-.5002-.2602-.9433-.4611-1.9056-.8771-2.8854-1.2508-.1869-.0709-.3774-.1326-.5648-.2004-.8459-.3057-1.7039-.5788-2.5736-.8197-.2075-.0577-.4134-.1207-.6236-.1744-.1535-.0392-.3038-.0903-.4584-.1278.1487-.0365.2938-.0852.442-.1236.2281-.059.4536-.127.6802-.1903.8469-.2348,1.6817-.5005,2.5048-.7972.2043-.0733.4113-.14.613-.2176.9676-.3695,1.9188-.7802,2.851-1.2352.1906-.0929.3748-.1972.5637-.2933.3954-.2014.7914-.3989,1.1799-.6135.0752,1.1473.127,2.3008.127,3.4669ZM104.7923,49.7492c-.2139.1106-.4198.2387-.6363.3451-.9269.4552-1.8739.8647-2.8394,1.2318-.3817.144-.7787.2559-1.1656.3864-.5833.1974-1.1661.3975-1.7632.5637-.5468.1514-1.1095.2721-1.6695.3981-.3314.0744-.6627.1487-.9978.2144-.8284-21.5093-18.0673-38.7633-39.57-39.6174.0937-.4936.1953-.9846.3113-1.4713.0831-.351.154-.7061.2477-1.0534.2218-.8123.4833-1.6087.7649-2.399.0699-.1966.1233-.4002.1969-.595.3727-.9862.7924-1.9527,1.2577-2.9002.108-.2181.2377-.4266.3494-.6426.3028-.5839.6267-1.1579.9655-1.7256,24.3214,2.6583,43.6279,21.9775,46.2667,46.3051-.5653.3364-1.137.6582-1.7182.96Z" style="fill:#0d3e54;"/><path d="M158.9143,15.7502h-7.6547c.2414,4.0984.3615,8.9005.3615,14.4048v18.563c0,2.1695-.4923,3.8874-1.4763,5.1531-.9851,1.2654-2.3206,1.8987-4.0081,1.8987-1.326,0-2.6821-.5023-4.068-1.507-1.3863-1.0039-2.923-2.6112-4.6111-4.8215v6.5691c1.326.8848,2.7923,1.5674,4.4004,2.0493,1.606.4822,3.2131.7236,4.8212.7236,3.6964,0,6.6601-1.1153,8.8897-3.3454,2.2296-2.2296,3.3454-5.2132,3.3454-8.95V15.7502Z" style="fill:#0d3e54;"/><path d="M180.29,57.8369c.5759-.5902.8644-1.3035.8644-2.1396,0-.8644-.2885-1.584-.8644-2.161-.5764-.5762-1.3117-.8644-2.2042-.8644-.8644,0-1.5922.2882-2.1825.8644-.5907.577-.8856,1.2966-.8856,2.161,0,.8361.3017,1.5494.9073,2.1396.605.5897,1.3244.8856,2.1608.8856.8925,0,1.6277-.2959,2.2042-.8856Z" style="fill:#0d3e54;"/><path d="M235.9476,36.4835h-7.6542c.2408,2.0893.4118,4.2289.5124,6.4182.0995,2.1909.1503,4.8921.1503,8.1065v4.0984c-1.8484.4817-3.8176.7231-5.9063.7231-3.5762,0-6.6898-.7532-9.3417-2.26-2.652-1.5068-4.6815-3.6762-6.0874-6.509-1.407-2.833-2.1094-6.1779-2.1094-10.0352s.6929-7.2323,2.0792-10.1254c1.3863-2.8928,3.3348-5.1229,5.8465-6.6895,2.5101-1.5674,5.3728-2.3508,8.5885-2.3508,2.2089,0,4.3395.4219,6.388,1.2651,2.0496.8443,4.1786,2.2108,6.3891,4.0992v-5.8465c-1.8082-.8035-3.7879-1.426-5.937-1.8686-2.1496-.4415-4.3088-.6627-6.4786-.6627-4.7826,0-9.0411.9544-12.7777,2.8627-3.7366,1.9088-6.6395,4.5909-8.7086,8.0459-2.0702,3.456-3.104,7.3938-3.104,11.8132,0,4.2596.9639,7.9956,2.8928,11.21,1.9289,3.2155,4.6502,5.6957,8.1666,7.4438,3.5153,1.7473,7.5838,2.6213,12.2044,2.6213,2.6117,0,5.214-.2811,7.8051-.8438,2.5916-.5622,4.9519-1.3456,7.082-2.3503v-19.1657Z" style="fill:#0d3e54;"/><path d="M281.5997,15.7502h-5.2436l-18.4421,42.1889h4.701c1.7675-5.1827,3.7165-10.466,5.8465-15.8507,1.687-.0394,4.3183-.0606,7.8945-.0606,3.536,0,6.1477.0212,7.8352.0606,2.0888,5.5048,3.9377,10.7881,5.5453,15.8507h8.2571l-16.3941-42.1889ZM276.3561,39.1349l-6.6892-.0601c1.3652-3.3753,3.6964-8.9805,6.991-16.8157l6.3891,16.8157-6.6908.0601Z" style="fill:#0d3e54;"/><path d="M351.5537,32.8363c.2202,4.6817.3515,10.1966.3917,16.5444l-25.3732-33.6306h-5.7857v42.1889h4.7609c-.6029-6.7501-1.0153-12.5257-1.2355-17.3273-.2213-4.8011-.352-10.5174-.3922-17.1471l26.037,34.5951h5.1229V15.7502h-4.7614c.6029,6.7109,1.0142,12.4061,1.2355,17.0862Z" style="fill:#0d3e54;"/><path d="M390.3324,55.0463v-17.7794h3.5556c4.3395,0,8.0359.2011,11.0901.6024v-4.1587c-2.8129.4428-6.5093.6635-11.0901.6635h-3.5556v-15.7308h2.2904c5.6247,0,10.1252.4219,13.5007,1.2656v-4.1587h-23.5052c.2403,4.4605.361,9.2618.361,14.4048v13.3795c0,5.1835-.1207,9.9851-.361,14.4046h23.8667v-4.2188c-3.6164.884-8.1571,1.326-13.6209,1.326h-2.5318Z" style="fill:#0d3e54;"/><path d="M455.58,38.6527c-1.5065-1.8474-3.8679-3.4148-7.0815-4.7008l-4.2188-1.6875c-2.4111-.9647-4.1892-2.0493-5.3347-3.2546-1.1444-1.2056-1.7172-2.5916-1.7172-4.159,0-2.0488.7834-3.7363,2.3503-5.0623,1.5674-1.3263,3.5762-1.989,6.027-1.989,3.6561,0,7.0714,1.4869,10.2458,4.4597v-5.7256c-1.3662-.5619-2.8627-.9735-4.4898-1.2352-1.6272-.261-3.2046-.3922-4.7312-.3922-4.7418,0-8.4789,1.106-11.2103,3.315-2.7324,2.2108-4.0981,5.2243-4.0981,9.0403,0,5.1838,3.194,9.0617,9.5826,11.6327l4.4602,1.7476c2.2497.8845,3.9176,1.9392,5.0022,3.1641,1.0846,1.2259,1.6277,2.6821,1.6277,4.3697,0,2.2507-.8141,4.0886-2.4413,5.5149-1.6272,1.4268-3.7271,2.1393-6.298,2.1393-4.1389,0-8.237-2.0493-12.2954-6.1477v6.1477c1.4059.884,3.1739,1.5975,5.304,2.1396,2.129.5426,4.2389.8141,6.3282.8141,3.0135,0,5.675-.5632,7.9856-1.6881,2.3106-1.1243,4.0987-2.7017,5.3643-4.7312,1.2656-2.0279,1.8987-4.3694,1.8987-7.0217,0-2.6107-.7532-4.8408-2.2603-6.6898Z" style="fill:#0d3e54;"/><path d="M143.6826,92.4084c-2.5323,0-4.1796-1.9067-4.1796-4.2643,0-2.3407,1.6134-4.2823,4.0907-4.2823,1.389,0,2.9473.6066,3.9552,1.5605l1.317-1.3001c-1.2662-1.1794-3.2438-1.9935-5.3061-1.9935-3.6228,0-6.1022,2.7208-6.1022,5.9974,0,3.3285,2.4625,6.0164,6.189,6.0164,2.4625,0,4.3681-1.1444,5.5834-2.3587l-1.3001-1.2821c-.9719,1.0396-2.4794,1.9067-4.2474,1.9067Z" style="fill:#0d3e54;"/><path d="M162.616,82.1287c-3.5698,0-6.3605,2.6689-6.3605,5.9804,0,3.3634,2.7907,6.0334,6.3605,6.0334,3.572,0,6.4156-2.67,6.4156-6.0334,0-3.3115-2.8436-5.9804-6.4156-5.9804ZM162.616,92.4084c-2.4265,0-4.3152-1.9416-4.3152-4.2993,0-2.3407,1.8887-4.2474,4.3152-4.2474,2.4434,0,4.3702,1.9067,4.3702,4.2474,0,2.3577-1.9268,4.2993-4.3702,4.2993Z" style="fill:#0d3e54;"/><polygon points="185.8644 90.3281 185.8475 90.3281 179.3112 82.4749 177.5941 82.4749 177.5941 93.7953 179.5357 93.7953 179.5357 85.9421 179.5547 85.9421 186.0889 93.7953 187.8039 93.7953 187.8039 82.4749 185.8644 82.4749 185.8644 90.3281" style="fill:#0d3e54;"/><path d="M202.0791,86.844c-1.7151-.1217-3.3962-.1736-3.3962-1.4049,0-1.1963,1.1963-1.6293,2.5493-1.6293,2.0792,0,3.483.7453,4.1077,1.317l1.1772-1.3519c-.8999-.7104-2.8245-1.6462-5.2171-1.6462-2.0792,0-4.5586.7972-4.5586,3.4841,0,2.7388,2.8436,2.9473,5.3378,3.1199,1.9776.1567,3.2777.451,3.2777,1.8728,0,1.2831-1.3339,1.8548-3.0151,1.8548-2.5323,0-4.1267-1.2132-5.0456-2.0454l-1.1794,1.3519c1.2662,1.1444,3.2078,2.3757,6.189,2.3757,2.7039,0,4.9927-1.0576,4.9927-3.7975,0-3.1548-3.1908-3.3623-5.2193-3.501Z" style="fill:#0d3e54;"/><path d="M223.6316,89.7734c0,1.6992-1.353,2.635-3.085,2.635-1.7172,0-3.0702-.9359-3.0702-2.635v-7.2985h-1.9416v7.2985c0,2.7907,2.1491,4.3691,5.0118,4.3691,2.8754,0,5.0266-1.5785,5.0266-4.3691v-7.2985h-1.9416v7.2985Z" style="fill:#0d3e54;"/><polygon points="236.7887 82.4749 234.8471 82.4749 234.8471 93.7953 243.74 93.7953 243.74 92.0612 236.7887 92.0612 236.7887 82.4749" style="fill:#0d3e54;"/><polygon points="248.7666 84.209 253.2236 84.209 253.2236 93.7953 255.1652 93.7953 255.1652 84.209 259.6032 84.209 259.6032 82.4749 248.7666 82.4749 248.7666 84.209" style="fill:#0d3e54;"/><rect x="267.5771" y="82.4749" width="1.9416" height="11.3204" style="fill:#0d3e54;"/><polygon points="287.1731 90.3281 287.1562 90.3281 280.6199 82.4749 278.9049 82.4749 278.9049 93.7953 280.8444 93.7953 280.8444 85.9421 280.8634 85.9421 287.3997 93.7953 289.1147 93.7953 289.1147 82.4749 287.1731 82.4749 287.1731 90.3281" style="fill:#0d3e54;"/><path d="M303.8345,89.2187h3.5529v2.2709c-.7622.5717-2.1512.9189-3.3285.9189-2.8605,0-4.3511-2.0803-4.3511-4.2643,0-2.3407,1.7172-4.2823,4.1606-4.2823,1.3339,0,2.9473.5727,3.9002,1.5255l1.3509-1.2132c-1.5414-1.318-3.4661-2.0454-5.268-2.0454-3.4682,0-6.1721,2.6689-6.1721,5.9974s2.67,6.0164,6.2568,6.0164c1.787,0,3.7985-.6596,5.2193-1.6992v-4.9578h-5.3209v1.733Z" style="fill:#0d3e54;"/></g></g></svg>