<svg width="29" height="28" viewBox="0 0 29 28" fill="none" xmlns="http://www.w3.org/2000/svg">
<path d="M21.3596 2.86328V15.8529C20.1053 16.3844 19.0319 17.1605 18.309 18.294C16.2805 21.475 17.7252 25.7099 21.3596 26.9833V27.9376H3.21176L3.1333 27.8621V2.86328H21.3586H21.3596ZM19.1135 14.4718V5.90433C19.1135 5.76844 18.9315 5.59429 18.7766 5.57516C18.1761 5.50067 17.4104 5.63455 16.791 5.57818C16.7105 5.56509 16.5546 5.76038 16.5546 5.80367V14.3963L16.4761 14.4718H15.432L15.3536 14.3963V8.81854C15.3536 8.71989 15.1663 8.61118 15.0628 8.59608C14.865 8.56588 13.1629 8.57293 13.0562 8.61923C13.029 8.63131 12.8459 8.80546 12.8459 8.81955V14.3973L12.7675 14.4728H11.7234L11.6449 14.3973V7.4626C11.6449 7.36395 11.4577 7.25524 11.3541 7.24014C11.0047 7.18578 9.95432 7.20088 9.57979 7.2341C9.46366 7.24416 9.1383 7.34986 9.1383 7.4626V14.3973L9.05984 14.4728H8.01577L7.9373 14.3973V9.62385C7.9373 9.45776 7.64542 9.3581 7.49582 9.34502C7.12757 9.3128 6.11593 9.2977 5.77278 9.35005C5.68386 9.36314 5.43069 9.51312 5.43069 9.57352V14.3973L5.35222 14.4728H4.46403C4.44101 14.4728 4.27258 14.5876 4.25479 14.6228C4.13239 14.8614 4.35522 15.1412 4.61781 15.1292L19.9232 15.1271C20.4599 15.0667 20.2413 14.4728 20.0791 14.4728H19.1135V14.4718ZM5.07917 19.4335C5.14404 19.4919 5.26539 19.4919 5.35118 19.499C5.65666 19.5241 6.59612 19.5443 6.86603 19.4959C7.19975 19.4366 7.23846 18.9101 6.81163 18.8467C6.57624 18.8114 5.47149 18.8044 5.2497 18.8446C4.9892 18.892 4.88249 19.2543 5.07917 19.4335ZM9.0724 18.8547C8.70205 18.9332 8.73762 19.4627 9.1111 19.5H16.6362C17.0892 19.3983 17.0651 18.897 16.5828 18.8426L9.0724 18.8547ZM5.15345 21.3159C4.88772 21.3935 4.92852 21.9008 5.2497 21.9582C5.47149 21.9984 6.57624 21.9914 6.81163 21.9562C7.23742 21.8927 7.19975 21.3673 6.86603 21.3069C6.70701 21.2787 5.27585 21.2797 5.1545 21.3149L5.15345 21.3159ZM9.01904 21.3169C8.68531 21.4901 8.76482 21.9471 9.16341 21.9612H16.1633C16.5881 21.9612 16.6268 21.3562 16.2167 21.3039L9.01799 21.3169H9.01904ZM7.03551 23.8325C6.97797 23.7772 6.79803 23.7258 6.71224 23.7168C6.43082 23.6866 5.62736 23.6815 5.35641 23.7218C4.86366 23.7943 4.84692 24.3228 5.26016 24.4113C5.47149 24.4566 6.58252 24.4536 6.81267 24.4194C7.08886 24.3771 7.24788 24.0379 7.03655 23.8335L7.03551 23.8325ZM17.0107 23.8315C16.9427 23.7621 16.7387 23.7248 16.6351 23.7158C14.2802 23.5104 11.6052 23.8758 9.21572 23.7168C8.71774 23.7238 8.64661 24.3781 9.16341 24.4224H16.7377C17.062 24.4516 17.1927 24.0188 17.0097 23.8315H17.0107Z" fill="white"/>
<path d="M18.2253 0V2.16125H2.74201C2.70539 2.16125 2.45431 2.36459 2.45431 2.38774V25.0763H0V0.0754978L0.0784626 0H18.2263H18.2253Z" fill="white"/>
<path d="M20.573 17.0865L25.9514 26.1502C24.2963 27.0391 22.1391 26.8478 20.5584 25.8704C17.8425 24.1903 17.2295 20.4587 19.3239 18.0669C19.4704 17.8998 20.4046 16.9757 20.573 17.0875V17.0865Z" fill="white"/>
<path d="M28.0372 18.5872L23.6935 20.9497L21.1523 16.7128C23.2415 15.674 25.9271 16.1763 27.5235 17.8131C27.6386 17.9318 28.1251 18.4523 28.0372 18.5872Z" fill="white"/>
<path d="M26.5298 25.8294L24.0273 21.5824L28.4275 19.1503C28.5489 19.1856 28.7456 19.8177 28.7885 19.9617C29.3733 21.9387 28.7236 24.1141 27.1041 25.4529C27.0382 25.5072 26.5716 25.8596 26.5298 25.8294Z" fill="white"/>
<path d="M18.3821 6.23047H17.2334V14.4718H18.3821V6.23047Z" fill="white"/>
<path d="M10.9671 7.8877H9.81836V14.4711H10.9671V7.8877Z" fill="white"/>
<path d="M14.6746 9.24512H13.5259V14.4716H14.6746V9.24512Z" fill="white"/>
<path d="M7.25807 10.0498H6.10938V14.472H7.25807V10.0498Z" fill="white"/>
</svg>
