<svg width="31" height="29" viewBox="0 0 31 29" fill="none" xmlns="http://www.w3.org/2000/svg">
<path d="M6.2 24.938L2.635 28.5228C2.14417 29.0164 1.58204 29.1271 0.948602 28.8548C0.315169 28.5826 -0.00103081 28.0953 2.52443e-06 27.3928V3.11725C2.52443e-06 2.26001 0.303803 1.52641 0.911402 0.916472C1.519 0.30653 2.24854 0.00103908 3.1 0H27.9C28.7525 0 29.4825 0.305491 30.0901 0.916472C30.6977 1.52745 31.001 2.26105 31 3.11725V21.8208C31 22.678 30.6967 23.4121 30.0901 24.0231C29.4836 24.6341 28.7535 24.939 27.9 24.938H6.2ZM7.75 18.7035H17.05C17.4892 18.7035 17.8575 18.5539 18.1551 18.2546C18.4527 17.9554 18.601 17.5854 18.6 17.1449C18.599 16.7043 18.4502 16.3344 18.1536 16.0351C17.857 15.7359 17.4892 15.5863 17.05 15.5863H7.75C7.31083 15.5863 6.94297 15.7359 6.6464 16.0351C6.34983 16.3344 6.20103 16.7043 6.2 17.1449C6.19897 17.5854 6.34777 17.9559 6.6464 18.2562C6.94503 18.5565 7.3129 18.7056 7.75 18.7035ZM7.75 14.0276H23.25C23.6892 14.0276 24.0575 13.878 24.3551 13.5787C24.6527 13.2795 24.801 12.9096 24.8 12.469C24.799 12.0284 24.6502 11.6585 24.3536 11.3593C24.057 11.06 23.6892 10.9104 23.25 10.9104H7.75C7.31083 10.9104 6.94297 11.06 6.6464 11.3593C6.34983 11.6585 6.20103 12.0284 6.2 12.469C6.19897 12.9096 6.34777 13.28 6.6464 13.5803C6.94503 13.8806 7.3129 14.0297 7.75 14.0276ZM7.75 9.35175H23.25C23.6892 9.35175 24.0575 9.20212 24.3551 8.90287C24.6527 8.60361 24.801 8.2337 24.8 7.79313C24.799 7.35255 24.6502 6.98264 24.3536 6.68338C24.057 6.38413 23.6892 6.2345 23.25 6.2345H7.75C7.31083 6.2345 6.94297 6.38413 6.6464 6.68338C6.34983 6.98264 6.20103 7.35255 6.2 7.79313C6.19897 8.2337 6.34777 8.60413 6.6464 8.90443C6.94503 9.20472 7.3129 9.35383 7.75 9.35175Z" fill="white"/>
</svg>
