<svg width="21" height="26" viewBox="0 0 21 26" fill="none" xmlns="http://www.w3.org/2000/svg">
<path d="M19.6229 19.0003C19.2577 17.4923 19.0681 16.1783 17.9716 14.9576C17.2831 14.1906 16.2739 13.5358 15.2592 13.2574C14.5548 13.0643 14.4796 13.199 13.8663 13.446C11.7318 14.3065 9.4301 14.3684 7.28078 13.5089C6.7855 13.3104 6.51045 13.0679 5.93711 13.2035C3.77199 13.7155 2.24247 15.4444 1.71932 17.4833C1.35877 18.8863 1.05677 20.317 0.722247 21.7281C0.504807 22.6442 0.252984 23.5622 0.0634203 24.4873C0.054128 24.534 0.0253217 24.5735 0.0178878 24.6148C-0.068531 25.1106 0.160061 25.5058 0.662776 25.6495C7.20923 25.689 13.7678 25.6881 20.3142 25.6495C20.7222 25.5507 20.9851 25.2525 21 24.842C20.5791 22.8885 20.0931 20.944 19.6219 18.9994L19.6229 19.0003Z" fill="white"/>
<path d="M10.4979 11.7212C13.846 11.7212 16.5602 9.09736 16.5602 5.86065C16.5602 2.62394 13.846 6.10352e-05 10.4979 6.10352e-05C7.14974 6.10352e-05 4.43555 2.62394 4.43555 5.86065C4.43555 9.09736 7.14974 11.7212 10.4979 11.7212Z" fill="white"/>
</svg>
