<svg width="29" height="30" viewBox="0 0 29 30" fill="none" xmlns="http://www.w3.org/2000/svg">
<path d="M14.5 0C6.49178 0 0 6.71563 0 15C0 23.2844 6.49178 30 14.5 30C22.5082 30 29 23.2844 29 15C29 6.71563 22.5082 0 14.5 0ZM15.8249 23.6394H13.1232V20.9612H15.8249V23.6394ZM15.8249 18.1003V18.9858H13.1232V17.896C13.1232 14.6037 16.7447 14.0815 16.7447 11.7418C16.7447 10.6757 15.8239 9.85826 14.6167 9.85826C13.3657 9.85826 12.2682 10.8119 12.2682 10.8119L10.7318 8.83446C10.7318 8.83446 12.2453 7.19761 14.8572 7.19761C17.3373 7.19761 19.6409 8.78698 19.6409 11.4662C19.6409 15.2147 15.8229 15.6461 15.8229 18.0993L15.8249 18.1003Z" fill="white"/>
</svg>
